<?xml version="1.0" standalone="no"?>
<!DOCTYPE svg PUBLIC "-//W3C//DTD SVG 20010904//EN"
 "http://www.w3.org/TR/2001/REC-SVG-20010904/DTD/svg10.dtd">
<svg version="1.0" xmlns="http://www.w3.org/2000/svg"
 width="700.000000pt" height="700.000000pt" viewBox="0 0 700.000000 700.000000"
 preserveAspectRatio="xMidYMid meet">
<metadata>
Created by potrace 1.11, written by Peter Selinger 2001-2013
</metadata>
<g transform="translate(0.000000,700.000000) scale(0.100000,-0.100000)"
fill="#000000" stroke="none">
<path d="M496 6283 c6 -143 16 -343 19 -368 2 -16 7 -73 10 -125 4 -52 8 -97
10 -100 2 -3 6 -34 10 -70 3 -36 8 -72 10 -80 2 -8 7 -35 10 -60 6 -45 21
-133 30 -180 3 -14 8 -38 11 -55 9 -52 42 -198 58 -255 8 -30 24 -90 36 -134
64 -240 177 -528 308 -788 l74 -146 -20 -29 c-11 -15 -84 -131 -162 -258 -78
-126 -153 -246 -165 -265 -87 -133 -136 -223 -128 -231 9 -9 195 59 356 130
26 11 47 16 47 12 0 -5 -21 -67 -46 -137 -25 -71 -55 -153 -65 -183 l-19 -53
153 6 c83 4 171 8 195 10 l43 2 -5 -50 c-9 -75 -15 -128 -21 -156 -2 -14 -7
-54 -10 -90 -4 -36 -9 -73 -11 -82 -7 -23 -10 -23 132 6 66 13 135 27 154 30
19 3 52 10 73 15 20 5 39 6 41 2 3 -4 -2 -42 -9 -86 -8 -44 -16 -100 -20 -125
-7 -56 -15 -99 -22 -124 -6 -21 -14 -22 122 9 39 9 77 18 85 20 8 2 31 8 51
13 l36 9 -8 -46 c-4 -25 -10 -66 -13 -91 -3 -25 -10 -68 -14 -95 -10 -61 -6
-75 18 -75 27 0 214 -67 297 -106 174 -83 361 -235 456 -373 67 -95 88 -142
116 -256 44 -175 70 -226 160 -315 56 -55 89 -76 211 -136 80 -40 172 -82 205
-94 33 -12 71 -27 85 -33 46 -19 241 -18 307 2 104 33 164 61 195 91 31 32 25
36 -32 20 -57 -16 -142 -20 -184 -9 -35 10 -96 59 -96 79 0 4 22 6 48 5 74 -3
150 24 182 65 35 43 46 79 28 84 -78 23 -107 39 -115 64 -4 15 -8 34 -7 42 1
8 2 25 3 38 2 34 34 59 98 78 78 23 93 33 113 78 38 83 1 209 -82 280 -55 47
-80 54 -268 71 -63 6 -119 13 -171 21 l-37 5 3 62 c25 500 25 935 0 1089 -2
13 -6 43 -9 68 -40 317 -176 700 -322 906 -80 114 -175 196 -292 253 -113 56
-221 77 -423 84 l-66 2 23 108 c13 59 34 140 49 180 55 156 40 224 -94 407
-213 293 -548 610 -960 910 -79 58 -158 117 -175 132 l-31 27 41 1 c51 0 362
-104 484 -162 46 -23 135 -70 197 -107 63 -36 121 -71 131 -76 76 -45 183
-110 482 -295 190 -118 370 -224 400 -236 69 -29 74 -29 410 -49 36 -2 84 -6
106 -9 23 -3 70 -8 105 -11 356 -31 653 -123 1169 -363 126 -58 107 -61 192
26 61 63 143 141 282 267 14 13 167 139 231 191 82 67 262 204 577 439 78 58
118 83 122 77 2 -4 3 -70 1 -147 -3 -169 -25 -280 -89 -457 -47 -130 -70 -183
-177 -404 -94 -196 -149 -325 -136 -317 21 12 160 126 206 168 89 82 191 189
247 260 21 28 42 52 45 55 7 7 91 129 105 155 6 11 30 52 52 91 75 131 147
317 190 489 43 170 78 452 57 449 -6 -1 -53 -5 -105 -8 -391 -27 -804 -151
-1275 -382 -214 -105 -331 -171 -571 -325 -166 -106 -178 -111 -248 -112 -66
-1 -94 2 -381 37 -163 21 -224 24 -430 21 -132 -2 -265 -6 -295 -9 -280 -27
-360 -27 -415 -1 -22 11 -85 53 -140 94 -202 151 -532 374 -648 440 -18 10
-77 44 -132 76 -239 139 -566 287 -835 379 -107 36 -486 136 -518 136 -4 0 -6
-17 -6 -37z m2014 -2762 c83 -31 80 -22 57 -131 -12 -54 -12 -73 -1 -108 21
-73 105 -125 160 -100 24 11 94 93 94 110 0 27 20 -9 30 -54 6 -29 18 -75 27
-101 8 -27 12 -51 9 -54 -3 -3 -56 -7 -118 -9 -92 -2 -124 1 -173 18 -85 28
-140 72 -172 138 -24 47 -28 68 -29 145 -1 101 11 175 29 174 7 0 46 -13 87
-28z"/>
<path d="M4307 3640 c-102 -32 -178 -104 -237 -225 -21 -44 -43 -104 -48 -134
-10 -52 -8 -235 2 -278 2 -12 7 -46 10 -75 4 -29 8 -64 10 -78 3 -14 10 -68
16 -120 6 -52 13 -111 16 -130 3 -19 7 -57 10 -85 2 -27 6 -59 8 -70 3 -11 5
-27 6 -35 3 -39 91 172 106 255 3 17 10 53 14 80 5 28 7 146 5 264 -3 117 -2
217 0 222 3 4 25 1 48 -7 89 -31 126 -36 163 -18 80 38 100 127 59 264 -3 10
7 20 28 29 17 8 64 28 102 46 39 17 96 42 129 56 l58 24 -33 7 c-44 10 -133
16 -289 22 -103 4 -135 1 -183 -14z"/>
</g>
</svg>
