<?xml version="1.0" standalone="no"?>
<!DOCTYPE svg PUBLIC "-//W3C//DTD SVG 20010904//EN"
 "http://www.w3.org/TR/2001/REC-SVG-20010904/DTD/svg10.dtd">
<svg version="1.0" xmlns="http://www.w3.org/2000/svg"
 width="70.000000pt" height="70.000000pt" viewBox="0 0 70.000000 70.000000"
 preserveAspectRatio="xMidYMid meet">
<metadata>
Created by potrace 1.11, written by Peter Selinger 2001-2013
</metadata>
<g transform="translate(0.000000,70.000000) scale(0.100000,-0.100000)"
fill="#000000" stroke="none">
<path d="M95 544 c3 -25 14 -72 25 -105 19 -54 19 -62 5 -82 -19 -27 -19 -41
-1 -34 10 4 12 0 9 -14 -4 -13 0 -19 11 -19 9 0 16 -7 16 -16 0 -10 6 -14 15
-10 9 3 15 0 15 -9 0 -8 5 -15 10 -15 6 0 10 -6 10 -13 0 -6 14 -18 31 -26 19
-8 37 -27 45 -47 16 -38 40 -54 81 -54 22 0 25 2 13 10 -9 6 -11 10 -3 10 7 0
10 7 7 15 -4 8 -1 15 5 15 21 0 11 21 -16 33 -26 11 -28 16 -29 77 -1 79 -23
127 -65 142 -23 8 -28 14 -23 30 4 15 -7 33 -50 74 l-55 53 42 -16 c23 -9 56
-26 72 -38 18 -13 52 -25 83 -28 29 -4 67 -13 84 -21 30 -15 31 -15 83 29 29
25 55 45 59 45 12 0 6 -31 -14 -70 -13 -26 -16 -38 -7 -34 21 8 67 86 67 115
0 26 -1 27 -42 17 -23 -5 -67 -22 -98 -37 -70 -36 -168 -38 -216 -4 -46 33
-131 73 -154 73 -19 0 -20 -4 -15 -46z m199 -233 c-7 -9 -34 10 -34 24 0 13 3
12 18 -2 10 -10 17 -20 16 -22z"/>
<path d="M411 337 c-5 -13 -6 -39 -1 -58 5 -22 9 -27 10 -14 1 11 3 25 4 32 0
6 11 23 23 37 l23 26 -25 0 c-17 0 -28 -7 -34 -23z"/>
</g>
</svg>
